<?xml version="1.0" standalone="no"?>
<!DOCTYPE svg PUBLIC "-//W3C//DTD SVG 20010904//EN"
 "http://www.w3.org/TR/2001/REC-SVG-20010904/DTD/svg10.dtd">
<svg version="1.0" xmlns="http://www.w3.org/2000/svg"
 width="612.000000pt" height="612.000000pt" viewBox="0 0 612.000000 612.000000"
 preserveAspectRatio="xMidYMid meet">

<g transform="translate(0.000000,612.000000) scale(0.100000,-0.100000)"
fill="#000000" stroke="none">
<path d="M2777 4643 c18 -2 50 -2 70 0 21 2 7 4 -32 4 -38 0 -55 -2 -38 -4z"/>
<path d="M2938 4633 c6 -2 18 -2 25 0 6 3 1 5 -13 5 -14 0 -19 -2 -12 -5z"/>
<path d="M2600 4600 c-9 -6 -10 -10 -3 -10 6 0 15 5 18 10 8 12 4 12 -15 0z"/>
<path d="M3067 4584 c38 -25 123 -138 123 -164 0 -6 5 -21 12 -33 15 -27 15
-28 33 -147 8 -52 15 -123 15 -157 0 -35 4 -63 8 -63 12 0 4 140 -14 248 -9
51 -14 96 -10 99 8 9 79 -68 98 -107 30 -60 47 -119 54 -186 4 -40 11 -64 19
-64 16 0 -6 103 -43 205 -24 66 -99 165 -124 165 -13 0 -38 26 -32 33 6 6 -39
90 -65 121 -21 25 -91 76 -105 76 -5 0 8 -12 31 -26z"/>
<path d="M2521 4535 c-17 -19 -37 -48 -44 -63 -23 -45 -59 -161 -54 -175 2 -6
8 2 11 18 18 76 59 172 92 211 42 52 39 59 -5 9z"/>
<path d="M2415 4271 c-8 -14 -22 -262 -14 -253 7 7 29 254 24 260 -2 2 -6 -1
-10 -7z"/>
<path d="M2617 4223 c-17 -41 -26 -69 -32 -105 -3 -13 -8 -43 -13 -68 -5 -25
-10 -92 -11 -150 -1 -58 -4 -117 -5 -132 -2 -19 1 -28 11 -28 9 0 11 5 6 15
-5 8 -5 58 -2 112 14 206 26 282 54 350 9 20 14 38 12 40 -2 2 -11 -14 -20
-34z"/>
<path d="M2753 4023 c71 -2 183 -2 250 0 67 1 10 3 -128 3 -137 0 -192 -2
-122 -3z"/>
<path d="M3458 4013 c12 -2 32 -2 45 0 12 2 2 4 -23 4 -25 0 -35 -2 -22 -4z"/>
<path d="M2016 3988 c-4 -17 -10 -1195 -7 -1403 0 -11 1 -144 1 -295 1 -151 5
-284 10 -295 5 -12 9 107 9 300 1 302 2 322 21 350 11 17 20 35 20 40 -1 6 -8
-3 -17 -19 -11 -21 -17 -25 -22 -15 -3 8 -5 314 -3 681 2 583 4 666 17 662 8
-4 15 -1 15 5 0 21 -38 11 -44 -11z"/>
<path d="M3644 4003 c9 -9 67 -13 62 -4 -3 4 -19 8 -37 9 -17 0 -29 -2 -25 -5z"/>
<path d="M3405 3959 c2 -24 4 -128 4 -231 1 -156 4 -187 16 -192 9 -3 20 -16
25 -28 7 -18 9 -19 9 -5 1 9 -8 26 -18 36 -18 18 -20 36 -20 232 0 119 -4 216
-10 222 -5 5 -8 -7 -6 -34z"/>
<path d="M3701 3912 c-1 -49 -3 -53 -21 -47 -31 10 -24 -2 8 -13 l27 -9 -3 46
c-5 71 -10 82 -11 23z"/>
<path d="M3490 3940 c-9 -6 -10 -10 -3 -10 6 0 15 5 18 10 8 12 4 12 -15 0z"/>
<path d="M2234 3920 c0 -13 4 -16 10 -10 7 7 7 13 0 20 -6 6 -10 3 -10 -10z"/>
<path d="M3510 3925 c0 -7 73 -36 82 -33 5 2 -11 11 -37 20 -25 9 -45 15 -45
13z"/>
<path d="M2196 3844 c-27 -49 -48 -114 -27 -84 6 8 11 21 11 28 0 7 12 31 26
53 14 23 23 43 21 45 -3 3 -17 -16 -31 -42z"/>
<path d="M3790 3810 c8 -5 20 -10 25 -10 6 0 3 5 -5 10 -8 5 -19 10 -25 10 -5
0 -3 -5 5 -10z"/>
<path d="M3834 3792 c3 -6 -2 -13 -11 -15 -10 -2 -8 -3 5 -2 12 1 25 -1 27 -6
3 -4 6 -439 8 -966 1 -802 3 -874 7 -443 l5 515 38 -52 c34 -46 104 -107 147
-127 8 -4 4 1 -10 11 -64 45 -130 119 -154 169 l-26 55 0 424 c0 422 0 424
-21 436 -13 7 -19 7 -15 1z"/>
<path d="M2238 3773 c7 -3 16 -2 19 1 4 3 -2 6 -13 5 -11 0 -14 -3 -6 -6z"/>
<path d="M2313 3763 c9 -2 23 -2 30 0 6 3 -1 5 -18 5 -16 0 -22 -2 -12 -5z"/>
<path d="M3728 3763 c12 -2 32 -2 45 0 12 2 2 4 -23 4 -25 0 -35 -2 -22 -4z"/>
<path d="M3628 3753 c12 -2 30 -2 40 0 9 3 -1 5 -23 4 -22 0 -30 -2 -17 -4z"/>
<path d="M3518 3743 c18 -2 45 -2 60 0 15 2 0 4 -33 4 -33 0 -45 -2 -27 -4z"/>
<path d="M2162 2825 l-2 -920 -23 29 c-14 17 -29 27 -38 23 -11 -4 -11 -6 2
-6 8 -1 26 -24 40 -53 l24 -53 3 472 c1 259 1 687 -1 950 -1 263 -3 64 -5
-442z"/>
<path d="M2560 3638 c-4 -86 -3 -98 13 -102 9 -2 17 -14 17 -25 0 -12 5 -21
10 -21 17 0 11 26 -10 45 -16 14 -20 33 -22 109 l-3 91 -5 -97z"/>
<path d="M3379 3523 c0 -5 -2 -16 -4 -25 -2 -9 2 -19 9 -21 8 -3 11 4 8 24 -4
27 -11 39 -13 22z"/>
<path d="M2520 3503 c0 -15 28 -43 43 -43 6 0 5 5 -4 13 -8 6 -20 19 -26 27
-8 8 -13 9 -13 3z"/>
<path d="M3342 2998 c-7 -7 -12 -21 -12 -33 0 -48 57 -62 80 -20 12 22 11 27
-5 45 -20 23 -45 26 -63 8z"/>
<path d="M2630 2959 c-13 -24 -5 -54 11 -43 7 4 9 3 5 -4 -9 -15 10 -25 34
-17 43 14 31 85 -15 85 -14 0 -29 -8 -35 -21z"/>
<path d="M2117 2846 c-4 -10 -7 -25 -6 -34 0 -11 4 -9 10 7 5 13 8 29 6 35 -2
5 -6 2 -10 -8z"/>
<path d="M2090 2753 c-23 -58 -23 -61 0 -20 12 21 20 43 18 48 -2 6 -10 -7
-18 -28z"/>
<path d="M4110 2675 c19 -7 42 -13 50 -13 8 0 -1 6 -20 13 -19 7 -42 13 -50
13 -8 0 1 -6 20 -13z"/>
<path d="M4395 2670 c10 -11 20 -20 23 -20 3 0 -3 9 -13 20 -10 11 -20 20 -23
20 -3 0 3 -9 13 -20z"/>
<path d="M4205 2659 c-16 -4 -22 -7 -12 -8 16 -1 18 -7 12 -40 -6 -39 11 -91
36 -106 6 -4 1 11 -10 34 -21 41 -21 80 2 109 13 17 7 20 -28 11z"/>
<path d="M3185 2610 c27 -12 43 -12 25 0 -8 5 -22 9 -30 9 -10 0 -8 -3 5 -9z"/>
<path d="M3262 2581 c20 -10 49 -28 64 -40 15 -12 32 -21 38 -21 16 0 -85 66
-114 74 -16 4 -11 -1 12 -13z"/>
<path d="M5069 2532 c6 -11 11 -33 11 -49 1 -23 2 -25 10 -11 11 18 -1 61 -20
73 -9 6 -9 2 -1 -13z"/>
<path d="M4398 2441 c15 -27 29 -47 31 -45 6 6 -41 94 -50 94 -4 0 5 -22 19
-49z"/>
<path d="M1846 2438 c3 -4 14 -8 24 -8 12 0 29 -15 43 -37 19 -30 22 -45 17
-75 -8 -43 5 -42 15 1 7 33 -11 75 -44 105 -21 19 -65 31 -55 14z"/>
<path d="M1716 2375 c-3 -9 -6 -22 -5 -28 0 -7 5 -1 10 12 5 13 8 26 5 28 -2
2 -6 -3 -10 -12z"/>
<path d="M1715 2305 c4 -16 16 -40 27 -52 13 -14 18 -28 14 -40 -6 -15 -5 -16
6 -5 10 10 10 16 0 30 -7 9 -22 35 -33 57 -18 35 -20 37 -14 10z"/>
<path d="M1118 2283 c6 -2 18 -2 25 0 6 3 1 5 -13 5 -14 0 -19 -2 -12 -5z"/>
<path d="M1062 2245 c-6 -14 -8 -25 -3 -25 8 0 23 41 17 47 -1 2 -8 -8 -14
-22z"/>
<path d="M1270 2250 c8 -5 22 -9 30 -9 10 0 8 3 -5 9 -27 12 -43 12 -25 0z"/>
<path d="M1321 2236 c2 -2 18 -6 34 -10 22 -5 26 -4 15 4 -14 9 -59 15 -49 6z"/>
<path d="M1062 2196 c2 -11 19 -28 38 -39 l35 -19 -24 20 c-14 11 -31 28 -39
38 -13 18 -14 18 -10 0z"/>
<path d="M1448 2203 c7 -3 16 -2 19 1 4 3 -2 6 -13 5 -11 0 -14 -3 -6 -6z"/>
<path d="M1528 2183 c7 -3 16 -2 19 1 4 3 -2 6 -13 5 -11 0 -14 -3 -6 -6z"/>
<path d="M1737 2183 c-4 -3 -7 -11 -7 -17 0 -6 5 -5 12 2 6 6 9 14 7 17 -3 3
-9 2 -12 -2z"/>
<path d="M1715 2140 c3 -5 16 -15 28 -21 22 -12 22 -12 3 10 -19 21 -43 30
-31 11z"/>
<path d="M1810 2050 c30 -27 59 -49 64 -50 5 0 -15 23 -45 50 -30 28 -58 50
-64 50 -5 0 15 -22 45 -50z"/>
<path d="M1300 2045 c14 -8 30 -14 35 -14 6 0 -1 6 -15 14 -14 8 -29 14 -35
14 -5 0 1 -6 15 -14z"/>
<path d="M1350 2025 c0 -2 23 -16 50 -30 28 -14 50 -23 50 -20 0 2 -22 16 -50
30 -27 14 -50 23 -50 20z"/>
<path d="M3975 1979 c-4 -6 -5 -12 -2 -15 2 -3 7 2 10 11 7 17 1 20 -8 4z"/>
<path d="M1461 1966 c10 -9 69 -36 69 -32 0 6 -55 36 -66 36 -4 0 -5 -2 -3 -4z"/>
<path d="M1915 1960 c3 -5 8 -10 11 -10 2 0 4 5 4 10 0 6 -5 10 -11 10 -5 0
-7 -4 -4 -10z"/>
<path d="M1941 1943 c1 -13 229 -212 229 -200 0 3 -52 51 -115 107 -63 55
-115 98 -114 93z"/>
<path d="M3960 1941 c0 -5 8 -17 18 -28 9 -10 14 -14 10 -9 -5 6 -8 18 -8 28
0 10 -4 18 -10 18 -5 0 -10 -4 -10 -9z"/>
<path d="M1560 1915 c0 -2 23 -16 50 -30 28 -14 50 -23 50 -20 0 2 -22 16 -50
30 -27 14 -50 23 -50 20z"/>
<path d="M1670 1855 c0 -7 61 -37 66 -33 2 3 -12 12 -31 21 -19 9 -35 15 -35
12z"/>
<path d="M2388 1833 c7 -3 16 -2 19 1 4 3 -2 6 -13 5 -11 0 -14 -3 -6 -6z"/>
<path d="M1750 1815 c0 -2 23 -16 50 -30 28 -14 50 -23 50 -20 0 2 -22 16 -50
30 -27 14 -50 23 -50 20z"/>
<path d="M2838 1813 c7 -3 16 -2 19 1 4 3 -2 6 -13 5 -11 0 -14 -3 -6 -6z"/>
<path d="M3298 1813 c12 -2 32 -2 45 0 12 2 2 4 -23 4 -25 0 -35 -2 -22 -4z"/>
<path d="M2843 1615 c-1 -104 2 -179 5 -165 4 14 5 99 2 190 l-6 165 -1 -190z"/>
<path d="M3179 1648 c0 -84 -2 -163 -3 -175 -2 -13 1 -23 6 -23 4 0 8 79 8
175 0 96 -2 175 -5 175 -3 0 -5 -69 -6 -152z"/>
<path d="M1860 1755 c0 -2 27 -18 60 -35 33 -17 60 -28 60 -25 0 2 -27 18 -60
35 -33 17 -60 28 -60 25z"/>
<path d="M2183 1697 c0 -24 4 -34 10 -28 6 6 5 20 -1 38 -10 28 -10 28 -9 -10z"/>
<path d="M2045 1655 c22 -14 45 -25 50 -25 6 0 -10 11 -34 25 -56 32 -68 32
-16 0z"/>
</g>
</svg>
