<svg xmlns="http://www.w3.org/2000/svg" width="162" height="255.91" viewBox="0 0 162 255.91">
  <g id="Icon" transform="translate(-147.559 -268.452)">
    <ellipse id="Ellipse_9" data-name="Ellipse 9" cx="5.5" cy="8" rx="5.5" ry="8" transform="translate(183.559 417.362)" fill="#e3e3e3"/>
    <ellipse id="Ellipse_10" data-name="Ellipse 10" cx="5.5" cy="7.5" rx="5.5" ry="7.5" transform="translate(266.559 414.362)" fill="#e3e3e3"/>
    <path id="Path_8" data-name="Path 8" d="M162.47,77.33V237s9.109,2.968,11.72,10.18S309.75,248.79,309.75,248.79V95.012L278.673,82.956l18.754-5.626Z" transform="translate(-11.398 243.469)" fill="none" stroke="#333" stroke-width="1.5"/>
    <path id="Path_9" data-name="Path 9" d="M172.441,244.225,172.479,92.3s87.79,5.08,134.128-.285" transform="translate(-8.973 246.991)" fill="none" stroke="#333" stroke-width="1.5"/>
    <path id="Path_10" data-name="Path 10" d="M162.95,77.945,181.973,83.8l-7.317,11.463" transform="translate(-11.281 243.619)" fill="none" stroke="#333" stroke-width="1.5"/>
    <g id="Ellipse_6" data-name="Ellipse 6" transform="translate(258.559 355.362)" fill="none" stroke="#333" stroke-width="1.5">
      <circle cx="4.5" cy="4.5" r="4.5" stroke="none"/>
      <circle cx="4.5" cy="4.5" r="3.75" fill="none"/>
    </g>
    <path id="Path_14" data-name="Path 14" d="M173.6,78.9l9.987,3.17-7.292,10.78,118.259,1.427-26.791-10.3,7.451-4.122Z" transform="translate(-8.686 243.851)" fill="#e3e3e3"/>
    <g id="Ellipse_7" data-name="Ellipse 7" transform="translate(191.559 355.362)" fill="none" stroke="#333" stroke-width="1.5">
      <circle cx="4.5" cy="4.5" r="4.5" stroke="none"/>
      <circle cx="4.5" cy="4.5" r="3.75" fill="none"/>
    </g>
    <path id="Path_11" data-name="Path 11" d="M198.772,119.91s-10.321-66.467,25.31-70.486,42.329,16.128,41.793,70.486" transform="translate(-2.888 236.547)" fill="none" stroke="#333" stroke-width="1.5"/>
    <path id="Path_12" data-name="Path 12" d="M.1,50.982S-2.915,6.482,24.668,1.093,69.055,9.97,67.628,50.235" transform="matrix(1, 0.017, -0.017, 1, 182.703, 269.23)" fill="none" stroke="#333" stroke-width="1.5"/>
    <ellipse id="Ellipse_8" data-name="Ellipse 8" cx="81" cy="7.5" rx="81" ry="7.5" transform="translate(147.559 509.362)" fill="#e3e3e3"/>
    <g id="face">
      <circle id="Ellipse_4" data-name="Ellipse 4" cx="5" cy="5" r="5" transform="translate(199.559 400.362)" fill="#333"/>
      <circle id="Ellipse_5" data-name="Ellipse 5" cx="5" cy="5" r="5" transform="translate(254.559 398.362)" fill="#333"/>
      <path id="Path_13" data-name="Path 13" d="M204.5,176.974s10.359-10.429,26.07-12.076c8.216-.865,18.4,1.022,29.183,9.126" transform="translate(-1.154 264.763)" fill="none" stroke="#333" stroke-width="1.5"/>
    </g>
  </g>
</svg>
