<?xml version="1.0" encoding="utf-8"?>
<!-- Generator: Adobe Illustrator 27.5.0, SVG Export Plug-In . SVG Version: 6.00 Build 0)  -->
<svg version="1.1" xmlns="http://www.w3.org/2000/svg" xmlns:xlink="http://www.w3.org/1999/xlink" x="0px" y="0px"
	 viewBox="0 0 750 500" style="enable-background:new 0 0 750 500;" xml:space="preserve">
<g id="BACKGROUND">
	<g>
		<rect style="fill:transparent" width="750" height="500"/>
		<path style="fill:#98D3E5;" d="M639.378,163.69C614.206,86.084,530.062,43.351,452.554,68.824
			c-24.355,8.004-45.225,21.731-61.608,39.198c-28.824,30.732-71.609,44.792-113.044,37.15c-23.551-4.344-48.495-3.015-72.851,4.989
			c-77.509,25.471-119.901,109.788-94.129,187.197c25.712,77.228,109.06,119.191,186.457,93.756
			c23.891-7.851,44.427-21.209,60.666-38.202c29.783-31.167,72.873-45.328,115.339-37.904c23.154,4.048,47.611,2.619,71.501-5.232
			C622.282,324.34,664.49,241.116,639.378,163.69z"/>
		<path style="fill:transparent" d="M676.016,445.151H73.984c-2.385,0-4.319-1.934-4.319-4.319l0,0c0-2.385,1.934-4.319,4.319-4.319
			h602.032c2.385,0,4.319,1.934,4.319,4.319l0,0C680.335,443.217,678.401,445.151,676.016,445.151z"/>
	</g>
</g>
<g id="OBJECTS">
	<g>
		<g>
			<path style="fill:#FFFFFF;" d="M647.255,294.34h-68.966h-9.595h-68.966c-1.906,0-3.451,1.545-3.451,3.452
				c0,1.906,1.545,3.451,3.451,3.451h14.996c1.906,0,3.451,1.545,3.451,3.452c0,1.906-1.545,3.451-3.451,3.451h-21.036
				c-1.906,0-3.452,1.545-3.452,3.452c0,1.906,1.545,3.452,3.452,3.452h52.182c1.906,0,3.451,1.545,3.451,3.451
				c0,1.906-1.545,3.452-3.451,3.452h-15.573c-1.906,0-3.451,1.545-3.451,3.452c0,1.906,1.545,3.451,3.451,3.451h78.561
				c1.906,0,3.452-1.545,3.452-3.451c0-1.906-1.545-3.452-3.452-3.452h-26.05c-1.906,0-3.452-1.545-3.452-3.452
				c0-1.906,1.545-3.451,3.452-3.451h53.908c1.906,0,3.451-1.546,3.451-3.452c0-1.906-1.545-3.452-3.451-3.452h-20.955
				c-1.906,0-3.451-1.546-3.451-3.451c0-1.906,1.545-3.452,3.451-3.452h31.493c1.906,0,3.451-1.545,3.451-3.451
				C650.706,295.885,649.161,294.34,647.255,294.34z"/>
			<path style="fill:#FFFFFF;" d="M62.238,103.65h31.311c2.058,0,3.726,1.668,3.726,3.726c0,2.057-1.668,3.725-3.726,3.725H80.865
				c-2.057,0-3.726,1.668-3.726,3.726c0,2.057,1.668,3.725,3.726,3.725h84.797c2.057,0,3.726-1.668,3.726-3.725
				c0-2.057-1.668-3.726-3.726-3.726H133.42c-2.058,0-3.725-1.668-3.725-3.725c0-2.057,1.667-3.726,3.725-3.726h13.615h69.585
				c2.058,0,3.725-1.668,3.725-3.725c0-2.057-1.668-3.725-3.725-3.725h-56.324c-2.058,0-3.726-1.668-3.726-3.726
				c0-2.057,1.668-3.725,3.726-3.725h16.808c2.058,0,3.725-1.668,3.725-3.725s-1.668-3.726-3.725-3.726H92.307
				c-2.058,0-3.725,1.668-3.725,3.726s1.667,3.725,3.725,3.725h28.118c2.058,0,3.725,1.668,3.725,3.725
				c0,2.057-1.667,3.726-3.725,3.726H62.238c-2.058,0-3.726,1.668-3.726,3.725C58.513,101.982,60.181,103.65,62.238,103.65z"/>
			<path style="fill:#FFFFFF;" d="M218.712,260.176h74.44h10.356h74.441c2.057,0,3.725-1.668,3.725-3.725
				c0-2.057-1.668-3.725-3.725-3.725h-16.186c-2.057,0-3.725-1.668-3.725-3.725c0-2.057,1.668-3.725,3.725-3.725h22.705
				c2.057,0,3.725-1.668,3.725-3.725c0-2.057-1.668-3.725-3.725-3.725h-56.324c-2.057,0-3.725-1.668-3.725-3.725
				c0-2.057,1.668-3.725,3.725-3.725h16.809c2.057,0,3.725-1.668,3.725-3.725c0-2.057-1.668-3.725-3.725-3.725h-84.797
				c-2.058,0-3.725,1.668-3.725,3.725c0,2.057,1.668,3.725,3.725,3.725h28.118c2.057,0,3.726,1.668,3.726,3.725
				c0,2.057-1.668,3.725-3.726,3.725h-58.187c-2.057,0-3.726,1.668-3.726,3.725c0,2.057,1.668,3.725,3.726,3.725h22.618
				c2.058,0,3.725,1.668,3.725,3.725c0,2.057-1.668,3.725-3.725,3.725h-33.993c-2.058,0-3.725,1.668-3.725,3.725
				C214.987,258.508,216.654,260.176,218.712,260.176z"/>
			<path style="fill:#FFFFFF;" d="M687.762,162.283h-31.311c-2.058,0-3.726-1.668-3.726-3.725c0-2.057,1.668-3.725,3.726-3.725
				h12.684c2.057,0,3.726-1.668,3.726-3.725c0-2.057-1.668-3.725-3.726-3.725h-84.797c-2.057,0-3.725,1.668-3.725,3.725
				c0,2.057,1.668,3.725,3.725,3.725h32.242c2.058,0,3.725,1.668,3.725,3.725c0,2.057-1.668,3.725-3.725,3.725h-13.615H533.38
				c-2.058,0-3.726,1.668-3.726,3.725c0,2.057,1.668,3.725,3.726,3.725h56.324c2.058,0,3.725,1.668,3.725,3.725
				c0,2.058-1.668,3.726-3.725,3.726h-16.808c-2.058,0-3.725,1.668-3.725,3.725c0,2.057,1.668,3.725,3.725,3.725h84.797
				c2.058,0,3.725-1.668,3.725-3.725c0-2.057-1.668-3.725-3.725-3.725h-28.118c-2.058,0-3.725-1.668-3.725-3.726
				c0-2.057,1.668-3.725,3.725-3.725h58.187c2.058,0,3.725-1.668,3.725-3.725C691.487,163.951,689.819,162.283,687.762,162.283z"/>
		</g>
		<g>
			<g>
				<path style="fill:#19283B;" d="M280.031,439.11H144.742c-13.787,0-24.964-11.177-24.964-24.964V119.171
					c0-13.787,11.177-24.964,24.964-24.964h135.289c13.787,0,24.964,11.177,24.964,24.964v294.975
					C304.996,427.934,293.819,439.11,280.031,439.11z"/>
				<path style="fill:#294459;" d="M292.872,439.11H157.583c-13.787,0-24.964-11.177-24.964-24.964V119.171
					c0-13.787,11.177-24.964,24.964-24.964h135.289c13.788,0,24.964,11.177,24.964,24.964v294.975
					C317.836,427.934,306.659,439.11,292.872,439.11z"/>
				<path style="fill:#fecaca;" d="M292.872,102.206h-21.753v6.096c0,4.122-3.342,7.464-7.464,7.464h-76.856
					c-4.122,0-7.464-3.342-7.464-7.464v-6.097h-21.753c-9.354,0-16.964,7.61-16.964,16.965v294.975
					c0,9.354,7.61,16.965,16.964,16.965h135.289c9.354,0,16.964-7.61,16.964-16.965V119.171
					C309.836,109.817,302.226,102.206,292.872,102.206z"/>
				<g>
					<path style="fill:#FF8B0D;" d="M184.436,115.767h2.363c-4.122,0-7.464-3.342-7.464-7.464v-6.097h-2.363v6.097
						C176.972,112.425,180.314,115.767,184.436,115.767z"/>
					<path style="fill:#FF8B0D;" d="M292.872,102.206h-2.363c9.354,0,16.964,7.61,16.964,16.965v294.975
						c0,9.354-7.61,16.965-16.964,16.965h2.363c9.354,0,16.964-7.61,16.964-16.965V119.171
						C309.836,109.817,302.226,102.206,292.872,102.206z"/>
				</g>
				<g>
					<path style="fill:#294459;" d="M126.152,171.961c-1.46,0-2.644,1.184-2.644,2.644v27.904c0,1.46,1.184,2.644,2.644,2.644
						c1.46,0,2.644-1.184,2.644-2.644v-27.904C128.796,173.145,127.612,171.961,126.152,171.961z"/>
					<path style="fill:#294459;" d="M126.152,214.924c-1.46,0-2.644,1.184-2.644,2.644v27.904c0,1.46,1.184,2.644,2.644,2.644
						c1.46,0,2.644-1.184,2.644-2.644v-27.904C128.796,216.108,127.612,214.924,126.152,214.924z"/>
				</g>
			</g>
			<path style="fill:#F3F7FF;" d="M225.227,136.892c-13.285,0-24.055,10.77-24.055,24.055c0,13.285,24.055,46.25,24.055,46.25
				s24.055-32.965,24.055-46.25C249.283,147.662,238.513,136.892,225.227,136.892z M225.227,173.949
				c-7.181,0-13.002-5.821-13.002-13.002s5.821-13.002,13.002-13.002c7.181,0,13.002,5.821,13.002,13.002
				S232.408,173.949,225.227,173.949z"/>
			<g>
				<path style="fill:#F3F7FF;" d="M163.345,240.695h123.764c3.196,0,5.788-2.591,5.788-5.788c0-3.197-2.591-5.788-5.788-5.788
					H163.345c-3.197,0-5.788,2.591-5.788,5.788C157.557,238.104,160.149,240.695,163.345,240.695z"/>
			</g>
			<g>
				<rect x="157.557" y="257.172" style="fill:#F3F7FF;" width="135.34" height="122.06"/>
				<g>
					<path style="fill:#AD1E58;" d="M244.178,413.361h-42.478c-5.406,0-9.788-4.382-9.788-9.788v0c0-5.406,4.382-9.788,9.788-9.788
						h42.478c5.406,0,9.788,4.382,9.788,9.788v0C253.966,408.979,249.583,413.361,244.178,413.361z"/>
					<path style="fill:#E71C2E;" d="M251.182,413.361h-42.478c-5.406,0-9.788-4.382-9.788-9.788v0c0-5.406,4.382-9.788,9.788-9.788
						h42.478c5.406,0,9.788,4.382,9.788,9.788v0C260.97,408.979,256.587,413.361,251.182,413.361z"/>
				</g>
				<g>
					<rect x="166.859" y="264.623" style="fill:#D2E6FF;" width="24.316" height="21.634"/>
					<rect x="198.548" y="264.623" style="fill:#D2E6FF;" width="24.316" height="21.634"/>
					<rect x="230.237" y="264.623" style="fill:#D2E6FF;" width="24.316" height="21.634"/>
					<rect x="261.925" y="264.623" style="fill:#A6DE70;" width="24.316" height="21.634"/>
					<rect x="166.859" y="293.563" style="fill:#D2E6FF;" width="24.316" height="21.634"/>
					<rect x="198.548" y="293.563" style="fill:#A6DE70;" width="24.316" height="21.634"/>
					<rect x="261.925" y="293.563" style="fill:#A6DE70;" width="24.316" height="21.634"/>
					<rect x="166.859" y="322.504" style="fill:#D2E6FF;" width="24.316" height="21.634"/>
					<rect x="198.548" y="322.504" style="fill:#D2E6FF;" width="24.316" height="21.634"/>
					<polygon style="fill:#D2E6FF;" points="230.237,293.563 230.237,306.116 230.237,315.197 230.237,344.138 254.553,344.138 
						254.553,315.197 254.553,306.116 254.553,293.563 					"/>
					<rect x="261.925" y="322.504" style="fill:#D2E6FF;" width="24.316" height="21.634"/>
					<polygon style="fill:#D2E6FF;" points="191.176,351.445 187.797,351.445 166.859,351.445 166.859,373.079 187.797,373.079 
						191.176,373.079 222.864,373.079 222.864,351.445 					"/>
					<rect x="230.237" y="351.445" style="fill:#D2E6FF;" width="24.316" height="21.634"/>
					<rect x="261.925" y="351.445" style="fill:#D2E6FF;" width="24.316" height="21.634"/>
				</g>
				<polyline style="fill:none;stroke:#E71C2E;stroke-miterlimit:10;" points="194.862,264.658 194.862,290.383 226.242,290.383 
					226.242,347.005 258.019,347.005 258.019,373.079 				"/>
				<circle style="fill:#E71C2E;" cx="194.862" cy="264.658" r="1.765"/>
				<circle style="fill:#E71C2E;" cx="258.019" cy="373.079" r="1.765"/>
			</g>
		</g>
		<g>
			
				<ellipse transform="matrix(0.1761 -0.9844 0.9844 0.1761 377.7684 626.9512)" style="opacity:0.25;fill:#FFD152;" cx="563.397" cy="87.813" rx="40.173" ry="40.173"/>
			
				<ellipse transform="matrix(0.1754 -0.9845 0.9845 0.1754 378.1379 627.0782)" style="fill:#FFD152;" cx="563.397" cy="87.813" rx="27.013" ry="27.013"/>
		</g>
		<g>
			<path style="fill:none;stroke:#FFB692;stroke-width:12;stroke-miterlimit:10;" d="M492.845,213.036
				c18.16,72.371,80.836,51.337,80.836,51.337"/>
			<path style="fill:#ECB220;" d="M505.292,220.596l-7.398-19.682c-2.346-5.421-8.642-7.914-14.063-5.569l0,0
				c-5.421,2.346-7.914,8.642-5.568,14.063l7.398,19.682L505.292,220.596z"/>
			<path style="fill:#44596B;" d="M557.49,270.245h31.712c1.891,0,3.423-1.533,3.423-3.423l0,0c0-1.891-1.533-3.423-3.423-3.423
				H557.49V270.245z"/>
			<g>
				<path style="fill:#FFB692;" d="M562.256,262.283c0,0,3.421,3.786,4.262,9.28c0.241,1.578,1.536,2.775,3.128,2.896
					c2.923,0.223,7.611,0.246,11.921-1.204c1.393-0.469,2.211-1.914,1.89-3.348c-0.67-2.997-2.074-7.943-4.287-9.457
					C575.923,258.227,565.269,255.949,562.256,262.283z"/>
				<g>
					<path style="fill:#D88D87;" d="M570.83,274.531c0.328,0.015,0.681,0.023,1.037,0.03c0.467-2.155,0.44-5.676-1.937-10.768
						l-0.906,0.424C571.362,269.226,571.29,272.594,570.83,274.531z"/>
					<path style="fill:#D88D87;" d="M576.509,274.348c0.419-2.171,0.322-5.626-1.98-10.554l-0.906,0.424
						c2.304,4.934,2.267,8.279,1.825,10.233C575.798,274.421,576.15,274.389,576.509,274.348z"/>
					<path style="fill:#D88D87;" d="M578.223,264.217c2.02,4.326,2.241,7.427,1.967,9.441c0.355-0.094,0.709-0.198,1.061-0.311
						c0.206-2.178-0.145-5.322-2.121-9.554L578.223,264.217z"/>
				</g>
			</g>
			<path style="fill:none;stroke:#284159;stroke-width:16;stroke-miterlimit:10;" d="M500.545,299.671
				c8.364,4.351,14.865,8.186,14.758,9.543c-0.296,3.77-11.11,65.163-11.11,65.163"/>
			<path style="fill:none;stroke:#284159;stroke-width:16;stroke-miterlimit:10;" d="M464.933,282.572c0,0,20.748,9.366,35.612,17.1
				"/>
			<g>
				<path style="fill:#FF8B0D;" d="M516.794,361.065l-2.467,10.038c0,0,12.535,0.178,15.639,14.237l-37.12-0.03l6.074-27.448
					L516.794,361.065z"/>
				<path style="fill:#19283B;" d="M504.612,371.651c0.042,2.178-1.292,3.97-2.98,4.002c-1.687,0.032-3.089-1.707-3.13-3.885
					c-0.042-2.178,1.292-3.97,2.98-4.002C503.169,367.733,504.571,369.473,504.612,371.651z"/>
			</g>
			<g>
				<path style="fill:#E71C2E;" d="M547.174,397.492c0,0,17.856,6.651,28.612-5.57c10.755-12.221,21.745-23.563,56.091-22.03
					c0,0-6.704-21.773-34.325-21.773C569.932,348.12,553.55,368.053,547.174,397.492z"/>
				<g>
					<ellipse style="fill:#19283B;" cx="389.864" cy="402.594" rx="27.51" ry="36.516"/>
					
						<rect x="370.68" y="366.078" transform="matrix(-1 -1.224647e-16 1.224647e-16 -1 761.4606 805.1888)" style="fill:#19283B;" width="20.101" height="73.032"/>
					<ellipse style="fill:#44596B;" cx="370.546" cy="402.594" rx="27.51" ry="36.516"/>
					<ellipse style="fill:#DFE5F5;" cx="370.547" cy="402.595" rx="14.468" ry="23.475"/>
					<ellipse style="fill:#DFE5F5;" cx="370.547" cy="402.595" rx="15.994" ry="25.95"/>
					<path style="fill:#AFB6C6;" d="M370.547,376.644c1.153,0,2.324,0.276,3.484,0.749c-6.453,2.635-12.51,12.239-12.51,25.201
						c0,12.962,6.058,22.567,12.51,25.201c-1.16,0.474-2.331,0.749-3.484,0.749c-7.565,0-15.994-10.658-15.994-25.95
						S362.981,376.644,370.547,376.644z"/>
					<path style="fill:#F3F7FF;" d="M368.285,416.882c4.446,0,9.399-6.136,9.399-14.941c0-8.805-4.953-14.941-9.399-14.941
						c-4.446,0-9.399,6.136-9.399,14.941C358.886,410.745,363.84,416.882,368.285,416.882z"/>
				</g>
				<path style="fill:#E71C2E;" d="M563.264,271.887h-18.291c-3.725,0-6.744,3.019-6.744,6.744v99.965
					c0,3.725-3.019,6.744-6.744,6.744h-53.448c-3.725,0-6.744-3.019-6.744-6.744v-60.867c0-3.725-3.019-6.744-6.744-6.744h-77.663
					c-0.459,0-0.909,0.045-1.358,0.138c-6.699,1.386-58.342,14.143-61.925,78.571c-0.216,3.884,2.843,7.166,6.733,7.166h74.583
					h66.375h66.936h13.855c3.443,0,6.355-2.595,6.7-6.02c2.347-23.332,18.146-32.449,25.841-35.536
					c2.545-1.021,4.196-3.501,4.196-6.243v-29.065c0-2.739-1.612-5.298-4.177-6.259c-11.127-4.169-13.942-24.93-14.653-35.557
					C569.755,274.635,566.815,271.887,563.264,271.887z"/>
				<path style="fill:#AD1E58;" d="M538.229,283.66v2.012h32.509c-0.18-1.347-0.327-2.646-0.447-3.875h-30.199L538.229,283.66z"/>
				<path style="fill:#AD1E58;" d="M542.382,271.887h-18.291c-3.725,0-6.744,3.019-6.744,6.744v99.965
					c0,3.725-3.019,6.744-6.744,6.744h-53.448c-3.725,0-6.744-3.019-6.744-6.744v-60.867c0-3.725-3.019-6.744-6.744-6.744h-77.663
					c-0.459,0-0.909,0.045-1.358,0.138c-6.699,1.386-58.342,14.143-61.925,78.571c-0.216,3.884,2.843,7.166,6.733,7.166h74.583
					h66.375h66.936h13.855c3.443,0,6.355-2.595,6.7-6.02c2.347-23.332,18.146-32.449,25.841-35.536
					c2.545-1.021,4.196-3.501,4.196-6.243v-29.065c0-2.739-1.612-5.298-4.177-6.259c-11.127-4.169-13.942-24.93-14.653-35.557
					C548.873,274.635,545.933,271.887,542.382,271.887z"/>
				<path style="fill:#AD1E58;" d="M550.448,283.82h-30.27c-5.678,0-10.28-4.603-10.28-10.28v-11.977
					c0-5.678,4.603-10.28,10.28-10.28h30.27c5.677,0,10.28,4.603,10.28,10.28v11.977C560.729,279.217,556.126,283.82,550.448,283.82
					z"/>
				<path style="fill:#E71C2E;" d="M568.53,283.82h-30.27c-5.678,0-10.28-4.603-10.28-10.28v-11.977
					c0-5.678,4.603-10.28,10.28-10.28h30.27c5.677,0,10.28,4.603,10.28,10.28v11.977C578.81,279.217,574.208,283.82,568.53,283.82z"
					/>
				<g>
					<ellipse style="fill:#19283B;" cx="594.375" cy="402.594" rx="27.51" ry="36.516"/>
					
						<rect x="575.191" y="366.078" transform="matrix(-1 -1.224647e-16 1.224647e-16 -1 1170.4827 805.1888)" style="fill:#19283B;" width="20.101" height="73.032"/>
					<ellipse style="fill:#44596B;" cx="575.057" cy="402.594" rx="27.51" ry="36.516"/>
					<ellipse style="fill:#DFE5F5;" cx="575.057" cy="402.595" rx="14.468" ry="23.475"/>
					<ellipse style="fill:#DFE5F5;" cx="575.057" cy="402.595" rx="15.994" ry="25.95"/>
					<path style="fill:#AFB6C6;" d="M575.057,376.644c1.153,0,2.324,0.276,3.484,0.749c-6.453,2.635-12.51,12.239-12.51,25.201
						c0,12.962,6.058,22.567,12.51,25.201c-1.16,0.474-2.331,0.749-3.484,0.749c-7.565,0-15.994-10.658-15.994-25.95
						S567.492,376.644,575.057,376.644z"/>
					<path style="fill:#F3F7FF;" d="M572.796,416.882c4.446,0,9.399-6.136,9.399-14.941c0-8.805-4.953-14.941-9.399-14.941
						c-4.446,0-9.399,6.136-9.399,14.941C563.397,410.745,568.351,416.882,572.796,416.882z"/>
				</g>
				<g>
					<path style="fill:#19283B;" d="M566.124,281.033h-25.457c-1.824,0-3.303-1.479-3.303-3.303v-20.357
						c0-1.824,1.479-3.303,3.303-3.303h25.457c1.824,0,3.303,1.479,3.303,3.303v20.357
						C569.427,279.554,567.948,281.033,566.124,281.033z"/>
					<path style="fill:#44596B;" d="M573.457,281.033H548c-1.824,0-3.303-1.479-3.303-3.303v-20.357
						c0-1.824,1.479-3.303,3.303-3.303h25.457c1.824,0,3.303,1.479,3.303,3.303v20.357
						C576.76,279.554,575.281,281.033,573.457,281.033z"/>
					<path style="fill:#ECB220;" d="M547.497,276.93v-18.757c0-0.719,0.583-1.303,1.303-1.303h23.858
						c0.719,0,1.303,0.583,1.303,1.303v18.758c0,0.719-0.583,1.303-1.303,1.303H548.8C548.08,278.233,547.497,277.65,547.497,276.93
						z"/>
					<path style="fill:#FF8B0D;" d="M572.677,256.869h-4.689c1.006,0,1.824,0.818,1.824,1.824v17.715
						c0,1.006-0.818,1.825-1.824,1.825h4.689c0.708,0,1.283-0.574,1.283-1.283v-18.798
						C573.96,257.444,573.385,256.869,572.677,256.869z"/>
				</g>
				<path style="fill:#E71C2E;" d="M382.293,346.707h-13.24c-24.315,0-44.026,19.711-44.026,44.026v6.126h101.292v-6.126
					C426.319,366.419,406.607,346.707,382.293,346.707z"/>
				<path style="fill:#AD1E58;" d="M385.606,357.209c-11.888-8.866-28.405-8.866-40.293,0c-10.297,7.68-16.966,19.952-16.966,33.787
					v5.863h74.224v-5.863C402.572,377.161,395.903,364.888,385.606,357.209z"/>
				<g>
					<path style="fill:#44596B;" d="M468.59,315.968H362.953c-4.639,0-8.401-3.761-8.401-8.4l0,0c0-4.639,3.761-8.401,8.401-8.401
						H468.59c4.639,0,8.4,3.761,8.4,8.401l0,0C476.99,312.207,473.229,315.968,468.59,315.968z"/>
					<path style="fill:#19283B;" d="M410.513,315.968h-79.667c-4.639,0-8.401-3.761-8.401-8.4l0,0c0-4.639,3.761-8.401,8.401-8.401
						h79.667c4.639,0,8.401,3.761,8.401,8.401l0,0C418.914,312.207,415.153,315.968,410.513,315.968z"/>
				</g>
				<path style="fill:#AD1E58;" d="M568.565,405.104l-25.493-25.493c-1.784-1.784-1.784-4.704,0-6.489l0,0
					c1.784-1.784,4.705-1.784,6.489,0l25.493,25.493c1.784,1.785,1.784,4.705,0,6.489l0,0
					C573.27,406.888,570.349,406.888,568.565,405.104z"/>
				<path style="fill:#AD1E58;" d="M531.625,397.079c0,0,20.272,7.064,31.028-5.156c10.755-12.221,21.746-23.563,56.092-22.03
					c0,0-6.704-21.773-34.325-21.773C556.798,348.12,538,367.639,531.625,397.079z"/>
				<path style="fill:#E71C2E;" d="M544.784,397.299c-0.035,0-0.07,0-0.106,0c-4.484-0.018-7.589-4.456-6.267-8.74
					c7.68-24.883,23.238-38.439,44.485-38.439c19.623,0,27.647,12.114,30.295,17.669c-0.993-0.023-1.97-0.035-2.925-0.035
					c-30.43,0-40.775,12.139-49.901,22.848C556.579,395.045,551.336,397.299,544.784,397.299
					C544.784,397.299,544.784,397.299,544.784,397.299z"/>
				<g>
					<path style="fill:#19283B;" d="M408.61,388.915h8.524c2.663,0,4.841-2.179,4.841-4.841l0,0c0-2.663-2.179-4.841-4.841-4.841
						h-8.758c-2.206,0-4.01,1.805-4.01,4.01v1.429C404.366,387.005,406.276,388.915,408.61,388.915z"/>
					<path style="fill:#44596B;" d="M410.926,388.915h8.524c2.663,0,4.841-2.179,4.841-4.841l0,0c0-2.663-2.179-4.841-4.841-4.841
						h-8.605c-2.29,0-4.163,1.873-4.163,4.163v1.276C406.682,387.005,408.592,388.915,410.926,388.915z"/>
					<path style="fill:#ECB220;" d="M419.449,386.389c1.427,0,2.558-1.298,2.271-2.777c-0.213-1.099-1.242-1.854-2.362-1.854h-8.004
						c-1.201,0-2.17,0.981-2.155,2.182l0.009,0.731c0,0.947,0.77,1.718,1.718,1.718H419.449z"/>
					<path style="fill:#C17F1F;" d="M420.221,384.073c0-1.277-1.039-2.315-2.315-2.315h1.452c1.12,0,2.149,0.755,2.362,1.854
						c0.287,1.478-0.843,2.777-2.271,2.777h-1.544C419.182,386.389,420.221,385.35,420.221,384.073z"/>
				</g>
				<g>
					<circle style="fill:#C0F3FF;" cx="562.345" cy="293.563" r="4.977"/>
					<circle style="fill:#FBF9FA;" cx="564.45" cy="293.563" r="4.977"/>
				</g>
				<path style="fill:#E71C2E;" d="M576.76,348.666c0,0,25.009-3.264,37.011,21.093h18.106c0,0-4.882-15.199-19.66-19.976
					C597.44,345.005,576.76,348.666,576.76,348.666z"/>
				<g>
					<g>
						<g>
							<rect x="335.586" y="230.116" style="fill:#E8A060;" width="97.594" height="68.61"/>
							<rect x="329.248" y="230.116" style="fill:#AD7B55;" width="37.157" height="68.61"/>
							<rect x="346.206" y="230.116" style="fill:#936B50;" width="0.855" height="68.61"/>
							<rect x="340.773" y="230.116" style="fill:#EDC09F;" width="11.72" height="26.66"/>
							<g>
								<rect x="403.003" y="234.335" style="fill:#FFFFFF;" width="25.456" height="11.19"/>
								<g>
									<rect x="404.694" y="235.576" style="fill:#626D7F;" width="0.541" height="8.708"/>
									<rect x="408.914" y="235.576" style="fill:#626D7F;" width="0.541" height="8.708"/>
									<rect x="410.163" y="235.576" style="fill:#626D7F;" width="0.973" height="8.708"/>
									<rect x="405.7" y="235.576" style="fill:#626D7F;" width="0.226" height="8.708"/>
									<rect x="406.218" y="235.576" style="fill:#626D7F;" width="0.226" height="8.708"/>
									<rect x="406.737" y="235.576" style="fill:#626D7F;" width="0.226" height="8.708"/>
									<rect x="407.256" y="235.576" style="fill:#626D7F;" width="0.226" height="8.708"/>
									<rect x="407.774" y="235.576" style="fill:#626D7F;" width="0.226" height="8.708"/>
									<rect x="411.79" y="235.576" style="fill:#626D7F;" width="0.541" height="8.708"/>
									<rect x="412.796" y="235.576" style="fill:#626D7F;" width="0.226" height="8.708"/>
									<rect x="413.315" y="235.576" style="fill:#626D7F;" width="0.226" height="8.708"/>
									<rect x="413.833" y="235.576" style="fill:#626D7F;" width="0.226" height="8.708"/>
									<rect x="414.352" y="235.576" style="fill:#626D7F;" width="0.226" height="8.708"/>
									<rect x="414.871" y="235.576" style="fill:#626D7F;" width="0.226" height="8.708"/>
								</g>
								<rect x="417.683" y="235.585" style="fill:#626D7F;" width="8.739" height="2.986"/>
								<rect x="417.683" y="240.953" style="fill:#626D7F;" width="8.739" height="0.754"/>
								<rect x="417.683" y="242.114" style="fill:#626D7F;" width="8.739" height="0.754"/>
								<rect x="417.683" y="243.255" style="fill:#626D7F;" width="8.739" height="0.754"/>
							</g>
						</g>
					</g>
					<rect x="359.136" y="229.309" style="fill:#44596B;" width="4.588" height="71.918"/>
					<rect x="331.277" y="229.309" style="fill:#44596B;" width="4.588" height="71.918"/>
				</g>
			</g>
			<path style="fill:#284159;" d="M470.217,299.749h-22.179c-9.154,0-16.644-7.49-16.644-16.644v-1.839
				c0-9.154,7.49-16.644,16.644-16.644h22.179c9.154,0,16.644,7.49,16.644,16.644v1.839
				C486.861,292.259,479.371,299.749,470.217,299.749z"/>
			<g>
				
					<ellipse transform="matrix(0.9311 -0.3647 0.3647 0.9311 -20.9807 180.8838)" style="fill:#AD1E58;" cx="468.419" cy="145.991" rx="31.33" ry="31.33"/>
				<g>
					<g>
						<path style="fill:#FF8B0D;" d="M485.38,274.014c-4.248,2.062-12.003,5.12-22.079,5.19
							c-13.805,0.096-23.864-5.474-27.996-8.088c1.333-23.032,2.666-46.065,3.999-69.098c0.476-8.217,7.523-14.494,15.741-14.018
							l16.013,0.927c10.594,0.613,18.686,9.699,18.072,20.293L485.38,274.014z"/>
					</g>
					<path style="fill:#FFB692;" d="M454.236,194.757c-0.964,4.077,3.78,8.688,10.596,10.299c6.815,1.611,13.121-0.389,14.085-4.466
						c0.964-4.077-3.78-8.689-10.595-10.299C461.505,188.68,455.199,190.68,454.236,194.757z"/>
				</g>
				<g>
					<path style="fill:#FFB692;" d="M470.213,133.868l-0.921-0.053c-5.904-0.342-11.123,6.857-11.657,16.079l-2.646,45.719
						l22.301,1.291l2.646-45.719C480.471,141.963,476.117,134.21,470.213,133.868z"/>
					<path style="fill:#D88D87;" d="M470.213,133.868l-0.921-0.053c-5.904-0.342-11.091,6.312-11.586,14.862l-1.808,31.236
						c-0.357,6.158,4.347,11.439,10.505,11.796l0,0c6.158,0.356,11.439-4.347,11.796-10.505l1.808-31.236
						C480.502,141.418,476.117,134.21,470.213,133.868z"/>
					<path style="fill:#252538;" d="M479.595,171.901l-24.036-1.391c-5.687-0.329-10.031-5.206-9.701-10.894l0.81-13.993
						c0.713-12.324,11.283-21.737,23.607-21.024l0,0c12.324,0.713,21.737,11.283,21.024,23.607l-0.81,13.993
						C490.159,167.887,485.282,172.23,479.595,171.901z"/>
					<path style="fill:#FFB692;" d="M466.735,185.604L466.735,185.604c-11.034-0.639-19.462-10.102-18.823-21.136l1.098-18.966
						c0.612-10.579,9.684-18.658,20.263-18.046l1.65,0.096c10.579,0.612,18.658,9.684,18.046,20.263l-1.098,18.966
						C487.232,177.816,477.769,186.243,466.735,185.604z"/>
					<g>
						<path style="fill:#D88D87;" d="M464.077,150.156l-4.591-0.266c-1.045-0.061-1.941,0.738-2.002,1.783
							c-0.06,1.045,0.738,1.941,1.783,2.002l4.591,0.266c1.045,0.061,1.941-0.738,2.002-1.783
							C465.92,151.113,465.122,150.216,464.077,150.156z"/>
						<path style="fill:#D88D87;" d="M484.712,151.35l-4.591-0.266c-1.045-0.061-1.941,0.738-2.002,1.783
							c-0.061,1.045,0.738,1.941,1.783,2.002l4.592,0.266c1.045,0.061,1.941-0.737,2.002-1.783
							C486.556,152.307,485.757,151.411,484.712,151.35z"/>
					</g>
					<g>
						<path style="fill:#252538;" d="M463.255,149.842c-1.292-0.075-2.399,0.911-2.474,2.203c-0.075,1.291,0.912,2.399,2.203,2.473
							c1.291,0.075,2.399-0.911,2.474-2.203C465.533,151.024,464.547,149.917,463.255,149.842z"/>
						<path style="fill:#252538;" d="M480.973,150.868c-1.292-0.075-2.399,0.911-2.474,2.203c-0.075,1.291,0.911,2.399,2.203,2.473
							c1.291,0.075,2.399-0.911,2.474-2.203C483.25,152.05,482.264,150.942,480.973,150.868z"/>
					</g>
					<g>
						<path style="fill:#252538;" d="M483.948,146.728l-3.979-1.511c-0.872-0.331-1.847,0.107-2.179,0.979
							c-0.331,0.872,0.107,1.848,0.979,2.179l3.979,1.511c0.872,0.331,1.848-0.107,2.179-0.979
							C485.258,148.035,484.82,147.059,483.948,146.728z"/>
						<path style="fill:#252538;" d="M462.541,144.208l-4.127,1.042c-0.905,0.228-1.452,1.147-1.224,2.051
							c0.228,0.904,1.147,1.452,2.051,1.224l4.127-1.042c0.904-0.228,1.453-1.147,1.224-2.051
							C464.364,144.527,463.446,143.979,462.541,144.208z"/>
					</g>
					<path style="fill:#D88D87;" d="M472.415,175.593c-0.241,1.034-2.438,1.405-4.908,0.83c-2.47-0.575-4.276-1.88-4.036-2.914
						c0.241-1.034,2.438-1.405,4.908-0.83C470.849,173.255,472.656,174.559,472.415,175.593z"/>
					<path style="fill:#D88D87;" d="M471.417,162.406L471.417,162.406c-1.838-0.106-3.242-1.682-3.135-3.52l0.312-5.396
						c0.106-1.838,1.682-3.241,3.52-3.135l0,0c1.838,0.106,3.241,1.682,3.135,3.52l-0.312,5.396
						C474.83,161.109,473.254,162.512,471.417,162.406z"/>
					<path style="fill:#F79C97;" d="M473.293,160.619L473.293,160.619c-0.486-0.028-0.856-0.445-0.828-0.93l0.362-6.246
						c0.028-0.486,0.445-0.856,0.93-0.828l0,0c0.485,0.028,0.856,0.444,0.828,0.93l-0.362,6.246
						C474.195,160.276,473.779,160.647,473.293,160.619z"/>
					<g>
						<path style="fill:#252538;" d="M474.367,165.372c-2.286-0.605-5.464-1.609-8.404-3.104c-1.934-0.983-3.953,1.395-3.116,3.705
							c0.891,2.458,2.658,4.858,6.135,5.53c2.849,0.551,4.763-0.017,6.045-0.962C476.842,169.206,476.405,165.911,474.367,165.372z"
							/>
						<path style="fill:#FF9292;" d="M468.982,171.503c-3.477-0.672-5.244-3.072-6.135-5.53c-0.125-0.346-0.18-0.693-0.187-1.031
							c1.304-0.433,2.989-0.488,5.165,0.228c3.361,1.106,4.793,3.706,5.346,6.253c0.001,0.005,0.001,0.01,0.002,0.015
							C472.07,171.756,470.698,171.835,468.982,171.503z"/>
						<path style="fill:#FFABAB;" d="M470.956,168.812c-0.406,0.556-1.723,0.323-2.941-0.521c-1.218-0.844-1.875-1.98-1.469-2.536
							c0.406-0.556,1.723-0.323,2.941,0.521C470.705,167.12,471.362,168.256,470.956,168.812z"/>
						<path style="fill:#FFFFFF;" d="M474.367,165.372c-2.286-0.605-5.464-1.609-8.404-3.104c-1.188-0.604-2.405,0.063-2.975,1.2
							c1.632,1.79,4.243,3.372,7.388,4.284c2.017,0.585,3.995,0.818,5.772,0.743C476.298,167.147,475.652,165.712,474.367,165.372z"
							/>
					</g>
				</g>
				<g>
					<path style="fill:#E71C2E;" d="M498.703,138.745c-2.099-16.096-15.267-29.333-32.597-30.456
						c-17.169-1.113-32.807,10.695-36.45,27.511c-3.641,16.808,5.281,32.993,19.988,39.54c6.177-8.02,4.935-35.518,8.476-38.918
						c2.762-2.652,24.61,1.945,37.627,4.982C497.388,141.787,498.921,140.416,498.703,138.745z"/>
					<path style="fill:#252538;" d="M478.602,137.748c0.962-8.426,0.954-18.952-1.877-27.11c-2.761-1.079-5.708-1.823-8.801-2.181
						c4.055,5.679,5.013,17.135,3.782,28.106C473.9,136.897,476.231,137.302,478.602,137.748z"/>
					<path style="fill:#FFFFFF;" d="M447.898,151.951c0.564,5.682-1.827,10.57-5.341,10.919c-3.513,0.348-6.818-3.975-7.381-9.657
						c-0.564-5.682,1.827-10.57,5.34-10.919C444.03,141.946,447.334,146.27,447.898,151.951z"/>
					<path style="fill:#252538;" d="M443.83,152.355c0.295,2.979-0.958,5.542-2.8,5.725c-1.842,0.183-3.575-2.084-3.87-5.063
						c-0.296-2.979,0.958-5.542,2.8-5.725C441.802,147.109,443.535,149.376,443.83,152.355z"/>
				</g>
			</g>
			<path style="fill:none;stroke:#FFB692;stroke-width:12;stroke-miterlimit:10;" d="M440.495,208.379
				c-17.633,67.519,56.44,55.995,56.44,55.995"/>
			<path style="fill:#ECB220;" d="M446.644,224.178l7.501-19.643c1.835-5.615-1.228-11.654-6.842-13.489h0
				c-5.614-1.835-11.654,1.228-13.489,6.842l-7.501,19.643L446.644,224.178z"/>
			<path style="fill:none;stroke:#284159;stroke-width:16;stroke-miterlimit:10;" d="M440.495,285.671
				c0,0,46.661,22.876,46.365,26.646s-11.11,65.163-11.11,65.163"/>
			<g>
				<path style="fill:#ECB220;" d="M488.882,361.065l-2.467,10.038c0,0,12.535,0.178,15.639,14.237l-37.12-0.03l6.074-27.448
					L488.882,361.065z"/>
				<path style="fill:#19283B;" d="M476.701,371.651c0.042,2.178-1.292,3.97-2.98,4.002c-1.687,0.032-3.089-1.707-3.13-3.885
					c-0.042-2.178,1.292-3.97,2.98-4.002C475.257,367.733,476.659,369.473,476.701,371.651z"/>
			</g>
			<path style="fill:#44596B;" d="M521.588,270.245h-31.712c-1.891,0-3.423-1.533-3.423-3.423l0,0c0-1.891,1.533-3.423,3.423-3.423
				h31.712V270.245z"/>
			<g>
				<path style="fill:#FFB692;" d="M488.628,262.283c0,0,3.421,3.786,4.262,9.28c0.241,1.578,1.536,2.775,3.128,2.896
					c2.923,0.223,7.612,0.246,11.921-1.204c1.393-0.469,2.211-1.914,1.89-3.348c-0.67-2.997-2.074-7.943-4.287-9.457
					C502.294,258.227,491.64,255.949,488.628,262.283z"/>
				<g>
					<path style="fill:#D88D87;" d="M497.201,274.531c0.329,0.015,0.681,0.023,1.037,0.03c0.467-2.155,0.44-5.676-1.937-10.768
						l-0.906,0.424C497.733,269.226,497.662,272.594,497.201,274.531z"/>
					<path style="fill:#D88D87;" d="M502.88,274.348c0.419-2.171,0.322-5.626-1.98-10.554l-0.906,0.424
						c2.304,4.934,2.267,8.279,1.825,10.233C502.169,274.421,502.522,274.389,502.88,274.348z"/>
					<path style="fill:#D88D87;" d="M504.595,264.217c2.02,4.326,2.241,7.427,1.967,9.441c0.355-0.094,0.709-0.198,1.061-0.311
						c0.206-2.178-0.145-5.322-2.121-9.554L504.595,264.217z"/>
				</g>
			</g>
		</g>
	</g>
</g>
</svg>
